<mxfile host="app.diagrams.net" modified="2024-07-30T18:15:37.403Z" agent="Mozilla/5.0 (Macintosh; Intel Mac OS X 10_15_7) AppleWebKit/537.36 (KHTML, like Gecko) Chrome/126.0.0.0 Safari/537.36" version="21.2.8" etag="nuvco1SHX7vIsVYRspYI" type="github">
  <diagram name="Page-1" id="JCmiXBzoodootjNJbpme">
    <mxGraphModel>
      <root>
        <mxCell id="0" />
        <mxCell id="1" parent="0" />
      </root>
    </mxGraphModel>
  </diagram>
</mxfile>
